# File created by Blade
# Date/Time:  Thu Jan 22 16:21:49 2015
#---------------------------------------------------------
:version 1.10
:name HOM
:units
  mass 1.0
  length 1.000000
  angle deg
:documentation
     Acclaim Skeleton File
:root
   axis xyz
   order TX TY TZ RX RY RZ
   position 0.000000 0.000000 0.000000
   orientation 0 0 0
:bonedata
   begin
      id 1
      name RightUpLeg_dum
      direction -1.000000 0.000000 0.000000
      length 3.766986
      axis 0.0 0.0 0.0 xyz
   end
   begin
      id 2
      name LeftUpLeg_dum
      direction 1.000000 0.000000 0.000000
      length 3.766986
      axis 0.0 0.0 0.0 xyz
   end
   begin
      id 3
      name Spine_dum
      direction 0.000000 1.000000 0.000000
      length 7.779697
      axis 0.0 0.0 0.0 xyz
   end
   begin
      id 4
      name RightUpLeg
      direction 0.000000 -1.000000 0.000000
      length 18.017682
      axis 0.0 0.0 0.0 xyz
      dof rx ry rz
   end
   begin
      id 5
      name RightLeg
      direction 0.000000 -1.000000 0.000000
      length 16.881075
      axis 0.0 0.0 0.0 xyz
      dof rx ry rz
   end
   begin
      id 6
      name RightFoot
      direction 0.000000 -0.258819 0.965926
      length 5.770812
      axis 15.0 0.0 0.0 xyz
      dof rx ry rz
   end
   begin
      id 7
      name RightToeBase
      direction 0.000000 0.000000 1.000000
      length 2.952750
      axis 0.0 0.0 0.0 xyz
      dof rx ry rz
   end
   begin
      id 8
      name LeftUpLeg
      direction 0.000000 -1.000000 0.000000
      length 18.017682
      axis 0.0 0.0 0.0 xyz
      dof rx ry rz
   end
   begin
      id 9
      name LeftLeg
      direction 0.000000 -1.000000 0.000000
      length 16.881075
      axis 0.0 0.0 0.0 xyz
      dof rx ry rz
   end
   begin
      id 10
      name LeftFoot
      direction 0.000000 -0.258819 0.965926
      length 5.770812
      axis 15.0 0.0 0.0 xyz
      dof rx ry rz
   end
   begin
      id 11
      name LeftToeBase
      direction 0.000000 0.000000 1.000000
      length 2.952750
      axis 0.0 0.0 0.0 xyz
      dof rx ry rz
   end
   begin
      id 12
      name Spine
      direction 0.000000 1.000000 0.000000
      length 0.000000
      axis 0.0 0.0 0.0 xyz
      dof rx ry rz
   end
   begin
      id 13
      name Spine_dum1
      direction 0.000000 1.000000 0.000000
      length 10.941760
      axis 0.0 0.0 0.0 xyz
   end
   begin
      id 14
      name Spine_dum2
      direction 0.000000 1.000000 0.000000
      length 10.941760
      axis 0.0 0.0 0.0 xyz
   end
   begin
      id 15
      name Spine_dum3
      direction 0.000000 1.000000 0.000000
      length 16.646042
      axis 0.0 0.0 0.0 xyz
   end
   begin
      id 16
      name RightShoulder
      direction -1.000000 0.000000 0.000000
      length 7.708937
      axis 0.0 0.0 90.0 xyz
      dof rx ry rz
   end
   begin
      id 17
      name RightArm
      direction -1.000000 0.000000 0.000000
      length 11.521345
      axis 0.0 0.0 90.0 xyz
      dof rx ry rz
   end
   begin
      id 18
      name RightForeArm
      direction -1.000000 0.000000 0.000000
      length 10.175898
      axis 0.0 0.0 90.0 xyz
      dof ry rz rx
   end
   begin
      id 19
      name RightHand
      direction -1.000000 0.000000 0.000000
      length 0.000000
      axis 0.0 0.0 90.0 xyz
      dof rx ry rz
   end
   begin
      id 20
      name RightHand_dum1
      direction -1.000000 0.000000 0.000000
      length 3.937000
      axis 0.0 0.0 90.0 xyz
   end
   begin
      id 21
      name RightHand_dum2
      direction 0.000000 0.000000 0.000000
      length 0.000000
      axis 0.0 0.0 90.0 xyz
   end
   begin
      id 22
      name RightHandThumb1
      direction 0.000000 0.000000 1.000000
      length 3.937000
      axis 0.0 0.0 90.0 xyz
      dof rx rz ry
   end
   begin
      id 23
      name LeftShoulder
      direction 1.000000 0.000000 0.000000
      length 7.708937
      axis 0.0 0.0 -90.0 xyz
      dof rx ry rz
   end
   begin
      id 24
      name LeftArm
      direction 1.000000 0.000000 0.000000
      length 11.521345
      axis 0.0 0.0 -90.0 xyz
      dof rx ry rz
   end
   begin
      id 25
      name LeftForeArm
      direction 1.000000 0.000000 0.000000
      length 10.175898
      axis 0.0 0.0 -90.0 xyz
      dof ry rz rx
   end
   begin
      id 26
      name LeftHand
      direction 1.000000 0.000000 0.000000
      length 0.000000
      axis 0.0 0.0 -90.0 xyz
      dof rx ry rz
   end
   begin
      id 27
      name LeftHand_dum1
      direction 1.000000 0.000000 0.000000
      length 3.937000
      axis 0.0 0.0 -90.0 xyz
   end
   begin
      id 28
      name LeftHand_dum2
      direction 0.000000 0.000000 0.000000
      length 0.000000
      axis 0.0 0.0 -90.0 xyz
   end
   begin
      id 29
      name LeftHandThumb1
      direction 0.000000 0.000000 1.000000
      length 3.937000
      axis 0.0 0.0 -90.0 xyz
      dof rx rz ry
   end
   begin
      id 30
      name Head
      direction 0.000000 1.000000 0.000000
      length 4.527550
      axis 0.0 0.0 0.0 xyz
      dof rx ry rz
   end
:hierarchy
   begin
      root RightUpLeg_dum LeftUpLeg_dum Spine_dum
      RightUpLeg_dum RightUpLeg
      LeftUpLeg_dum LeftUpLeg
      Spine_dum Spine
      RightUpLeg RightLeg
      RightLeg RightFoot
      RightFoot RightToeBase
      LeftUpLeg LeftLeg
      LeftLeg LeftFoot
      LeftFoot LeftToeBase
      Spine Spine_dum1 Spine_dum2 Spine_dum3
      Spine_dum1 RightShoulder
      Spine_dum2 LeftShoulder
      Spine_dum3 Head
      RightShoulder RightArm
      RightArm RightForeArm
      RightForeArm RightHand
      RightHand RightHand_dum1 RightHand_dum2
      RightHand_dum2 RightHandThumb1
      LeftShoulder LeftArm
      LeftArm LeftForeArm
      LeftForeArm LeftHand
      LeftHand LeftHand_dum1 LeftHand_dum2
      LeftHand_dum2 LeftHandThumb1
   end

# File created by Blade
# Date/Time:  Thu Jan 22 16:21:39 2015
# Frame Rate: 120.000 fps
#------------------------------------------------------
:FULLY-SPECIFIED
:DEGREES
347
root 19.812165 34.575984 -8.804433 4.127626 4.576632 -4.573883
RightUpLeg 12.005083 10.159360 26.330024
RightLeg -7.804121 -0.000000 0.000000
RightFoot -8.976325 -10.800987 1.918796
RightToeBase 4.151777 -0.000000 -0.000000
LeftUpLeg -33.320902 -18.917051 -3.609143
LeftLeg 22.305036 -0.000000 -0.000000
LeftFoot 5.039011 10.793217 -7.314289
LeftToeBase 7.281548 -0.000000 -0.000000
Spine 23.007939 -9.055627 -43.741079
RightShoulder -5.552020 -7.544272 -38.272268
RightArm -4.746757 30.711587 16.475828
RightForeArm 8.085184 -0.000000 15.528849
RightHand 6.698188 -0.000000 -16.294480
RightHandThumb1 -24.326973 -0.000000 -32.862282
LeftShoulder -14.541916 32.330848 -2.122886
LeftArm 44.221710 -15.724060 -66.140070
LeftForeArm 35.306553 0.000000 9.237956
LeftHand -22.065821 -0.000000 4.602511
LeftHandThumb1 -26.253704 0.000000 33.147579
Head -15.176144 27.786702 -36.983568
348
root 19.795131 34.571691 -8.849707 4.025494 4.807625 -4.665012
RightUpLeg 11.946347 9.900937 26.442724
RightLeg -7.828578 -0.000000 0.000000
RightFoot -8.898703 -10.778260 1.887823
RightToeBase 4.178269 -0.000000 -0.000000
LeftUpLeg -33.267912 -18.951072 -3.557041
LeftLeg 22.240659 -0.000000 -0.000000
LeftFoot 5.202701 10.641320 -7.321428
LeftToeBase 7.228312 -0.000000 -0.000000
Spine 23.296466 -8.943087 -44.021734
RightShoulder -5.608086 -7.443357 -38.359913
RightArm -4.819109 30.593545 16.111527
RightForeArm 7.766885 -0.000000 15.403829
RightHand 6.664479 -0.000000 -16.268994
RightHandThumb1 -24.326973 -0.000000 -32.862282
LeftShoulder -14.172295 32.356074 -1.970028
LeftArm 44.385126 -15.819079 -66.048275
LeftForeArm 35.634498 -0.000000 9.017953
LeftHand -21.621462 -0.000000 4.963873
LeftHandThumb1 -26.253704 0.000000 33.147579
Head -15.073641 28.101276 -37.119872
349
root 19.779049 34.568052 -8.893577 3.974079 5.039090 -4.750723
RightUpLeg 11.866050 9.704397 26.543835
RightLeg -7.898358 -0.000000 0.000000
RightFoot -8.796054 -10.771239 1.857711
RightToeBase 4.180034 -0.000000 -0.000000
LeftUpLeg -33.263224 -18.999708 -3.491186
LeftLeg 22.170195 -0.000000 -0.000000
LeftFoot 5.366710 10.490961 -7.309656
LeftToeBase 7.197853 -0.000000 -0.000000
Spine 23.494597 -8.879097 -44.289492
RightShoulder -5.609111 -7.349786 -38.473854
RightArm -4.870051 30.358582 15.778437
RightForeArm 7.772554 -0.000000 15.261106
RightHand 6.697655 -0.000000 -16.602713
RightHandThumb1 -24.326973 -0.000000 -32.862282
LeftShoulder -13.709227 32.328545 -1.831874
LeftArm 44.051132 -15.518199 -65.384676
LeftForeArm 35.552533 0.000000 9.234503
LeftHand -21.910387 -0.000000 4.655812
LeftHandThumb1 -26.253704 0.000000 33.147579
Head -14.839482 28.403543 -37.286117
350
root 19.765095 34.561671 -8.937485 3.905510 5.270818 -4.818274
RightUpLeg 11.821244 9.491495 26.627900
RightLeg -8.005384 -0.000000 0.000000
RightFoot -8.706515 -10.764971 1.783070
RightToeBase 3.921338 -0.000000 -0.000000
LeftUpLeg -33.222385 -19.056914 -3.455268
LeftLeg 22.069096 -0.000000 -0.000000
LeftFoot 5.522680 10.363934 -7.268307
LeftToeBase 7.192671 -0.000000 -0.000000
Spine 23.749920 -8.813706 -44.545195
RightShoulder -5.696083 -7.170955 -38.642695
RightArm -4.912505 30.248859 15.459005
RightForeArm 7.398273 -0.000000 15.205836
RightHand 6.554381 -0.000000 -16.632897
RightHandThumb1 -24.326973 -0.000000 -32.862282
LeftShoulder -13.373067 32.340179 -1.766158
LeftArm 43.980008 -15.323958 -64.880783
LeftForeArm 35.504248 0.000000 9.253347
LeftHand -21.841028 -0.000000 4.570970
LeftHandThumb1 -26.253704 0.000000 33.147579
Head -14.751711 28.701460 -37.527236
